<svg xmlns="http://www.w3.org/2000/svg" viewBox="0 0 120 120" fill="none">
  <path d="M60 24 L90 48 L30 48 Z" fill="#C4704E"/>
  <path d="M38 48 H82 V86 H38 Z" fill="#F5E6D3" stroke="#8B4513" stroke-width="2.5" stroke-linejoin="round"/>
  <rect x="52" y="64" width="16" height="22" rx="1.5" fill="#A0522D"/>
  <g transform="translate(72,18) rotate(35)" stroke="#8B4513" fill="none" stroke-width="2" stroke-linecap="round">
    <path d="M2 10c0-4 3-7 7-7 2 0 3.5.8 4.5 2l5 5-4 4-5-5c-.8-.8-2-1.2-3.2-1.2-2.5 0-4.3 2-4.3 4.5s1.8 4.5 4.3 4.5c1.2 0 2.4-.4 3.2-1.2l5 5-4 4-5-5c-1-1-2.5-2-4.5-2-4 0-7-3-7-7z"/>
    <circle cx="22" cy="22" r="5"/>
  </g>
</svg>
